<svg xmlns="http://www.w3.org/2000/svg" width="303.16718pt" height="285.4205pt" viewBox="0 0 303.16716 285.4205"><path fill="#0072b0" d="M-73.24 356.75h11.714v9.5H-73.24v33.767h-10.763v-59.833c0-1.056-.299-2.075-.897-3.062-.599-.984-1.496-1.477-2.69-1.477h-1.793v-5.277h16.143zm-54.132 8.445c0 3.237.86 6.173 2.585 8.812 1.722 2.636 3.814 3.96 6.277 3.96 2.461 0 4.556-1.287 6.278-3.855 1.725-2.57 2.588-5.47 2.588-8.71 0-3.304-.844-6.258-2.534-8.862-1.69-2.601-3.766-3.906-6.226-3.906-2.321 0-4.4 1.286-6.224 3.855-1.83 2.569-2.744 5.469-2.744 8.706m13.507 29.647v20.48c0 .49.12.873.366 1.16.248.277.582.42 1.006.42h40.205v9.496h-45.375c-2.394 0-4.189-.69-5.383-2.057-1.197-1.375-1.792-3.54-1.792-6.493V404.45c0-1.202-.302-2.218-.898-3.059-.601-.844-1.496-1.27-2.69-1.27h-1.795v-5.28zM-134.55 351.9h-10.024v-9.394h20.261v-4.96c0-.913-.267-1.67-.792-2.266-.526-.599-1.038-.898-1.529-.898h-1.372v-4.54h15.195v12.664h20.261v9.394h-10.132c1.267 1.827 2.27 3.886 3.008 6.172a23.027 23.027 0 0 1 1.11 7.124c0 6.046-1.973 11.254-5.91 15.617-3.941 4.359-8.656 6.545-14.14 6.545-5.489 0-10.184-2.186-14.09-6.545-3.905-4.363-5.854-9.571-5.854-15.617 0-2.463.35-4.838 1.054-7.124.703-2.286 1.687-4.345 2.954-6.172M-24.909 376.817h-33.555v-9.501h56.981c1.127-2.038 1.865-4.31 2.216-6.803.353-2.499.53-5.82.53-9.973v-5.488c0-.774-.123-1.302-.371-1.583-.248-.283-.723-.423-1.424-.423h-49.493v-9.498h61.418c.28 0 .49.089.633.266.14.176.21.475.21.895v16.99c0 4.501-.228 7.811-.687 9.919-.458 2.11-1.248 4.01-2.374 5.698h11.294v9.501h-33.45v15.825h23.635c.28 0 .494.09.634.27.14.172.21.436.21.79v33.765H.312v-24.27c0-.353-.07-.614-.213-.79-.143-.177-.35-.266-.63-.266h-48.014v-9.499h23.636ZM76.502 342.539h-18.89v15.407h18.89zm-36.3 70.914c0-1.2-.298-2.221-.9-3.06-.598-.846-1.493-1.266-2.687-1.266h-.951v-5.275H85.68v-5.698H36.615v-9.076h59.092c.278 0 .488.068.63.21.144.143.211.459.211.95v20.576c0 .56-.121 1.038-.367 1.423-.247.389-.725.58-1.423.58H51.173v4.437c0 .28.07.49.21.633.143.14.391.21.744.21h45.375v9.286H47.378c-2.674 0-4.542-.652-5.596-1.949-1.054-1.304-1.58-3.574-1.58-6.811zm32.925-39.68h33.448v9.29h-78.93v-9.29h33.55v-6.33H36.087v-9.494h10.76v-15.41h-10.76v-9.496h62.151v9.496h-10.97v15.41h10.97v9.493h-25.11zM175.924 387.225v-47.062c0-1.057-.304-2.075-.9-3.062-.607-.984-1.496-1.477-2.696-1.477h-1.795v-5.278h16.046v97.084h-10.655v-30.703c-1.695.843-3.695 1.428-6.021 1.743-2.324.31-5.275.475-8.86.475h-31.868c-2.674 0-4.542-.655-5.596-1.96-1.057-1.293-1.58-3.563-1.58-6.8V372.88c0-1.197-.304-2.218-.9-3.065-.604-.84-1.499-1.266-2.69-1.266h-.951v-5.488h33.98v-16.987H118.83v-9.393h42.633c.283 0 .51.088.69.264.167.178.256.439.256.792v32.604c0 .563-.121 1.038-.366 1.429-.243.382-.723.576-1.429.576h-27.65v17.095h31.664c2.679 0 4.905-.189 6.7-.574 1.796-.388 3.327-.93 4.596-1.642M274.823 389.442H264.59v-49.488c0-1.194-.248-2.219-.736-3.062-.496-.844-1.442-1.267-2.855-1.267h-.946v-5.278h14.771zm-25.429-33.453v-16.035c0-1.194-.266-2.219-.795-3.062-.53-.844-1.463-1.267-2.8-1.267h-1.051v-5.278h14.876v59.095h-10.23V365.49h-9.5v-9.501zm23.64 37.674c.563 0 1 .197 1.315.585.315.385.474.895.474 1.528v31.655h-11.186v-23.213c0-.35-.07-.614-.207-.79-.14-.178-.389-.267-.747-.267h-45.69v-9.498zm-56.351-28.278v7.067c0 .707.167 1.232.525 1.585.348.353.774.526 1.27.526h24.057v9.499h-25.852c-3.596 0-6.28-1.054-8.076-3.165-1.8-2.11-2.695-5.418-2.695-9.919v-24.903c0-1.197-.297-2.218-.892-3.065-.604-.843-1.494-1.261-2.696-1.261h-1.792v-5.278h38.407v9.499h-22.256v10.019h18.671v9.396zM343.736 360.949h6.86v-20.997c0-1.192-.27-2.216-.796-3.06-.525-.843-1.458-1.27-2.795-1.27h-1.06v-5.274h14.885v97.08h-10.235v-56.98h-6.86v56.98H333.49v-31.02c-1.684.773-3.636 1.304-5.849 1.584-2.216.283-5.121.42-8.706.42H303.63c-3.585 0-6.28-1.053-8.07-3.164-1.795-2.11-2.69-5.418-2.69-9.919v-37.887c0-1.194-.3-2.213-.9-3.06-.596-.837-1.49-1.266-2.685-1.266h-1.795v-5.275h37.356v9.499H303.74v39.463c0 .707.159 1.232.474 1.585.316.353.714.526 1.21.526h17.095c2.606 0 4.784-.173 6.539-.526 1.763-.353 3.243-.84 4.431-1.48v-46.956c0-1.192-.248-2.216-.736-3.06-.496-.843-1.436-1.27-2.843-1.27h-.952v-5.274h14.777zM443.498 350.462h11.714v10.555h-11.714V387.4h-10.76v-47.17c0-1.056-.302-2.078-.906-3.062-.596-.984-1.496-1.477-2.685-1.477h-1.795v-5.278h16.146zm-54.246 12.35c0 3.238.812 6.103 2.426 8.599 1.628 2.501 3.666 3.75 6.124 3.75 2.47 0 4.49-1.22 6.076-3.645 1.574-2.426 2.37-5.256 2.37-8.493 0-3.308-.796-6.189-2.37-8.653-1.585-2.46-3.574-3.695-5.965-3.695-2.321 0-4.343 1.216-6.076 3.641-1.717 2.429-2.585 5.26-2.585 8.496m52.45 28.804c.564 0 1 .2 1.321.585.316.382.475.9.475 1.525V427.5h-11.18v-25.329c0-.353-.076-.612-.22-.79-.134-.172-.382-.267-.74-.267h-45.27v-9.498zm-60.04-41.26h-9.92v-9.39h20.152v-4.431c0-.911-.245-1.669-.741-2.267-.496-.599-.979-.898-1.475-.898h-1.369v-4.539h15.084v12.135h20.374v9.39h-10.03a22.706 22.706 0 0 1 2.637 5.81c.633 2.11.949 4.323.949 6.646 0 5.979-1.928 11.1-5.796 15.354-3.876 4.258-8.482 6.385-13.824 6.385-5.418 0-10.046-2.127-13.885-6.385-3.83-4.254-5.746-9.375-5.746-15.354 0-2.323.32-4.536.951-6.647a22.62 22.62 0 0 1 2.64-5.808" style="stroke-width:2.69543"/><path fill="#fcb237" d="M136.598 189.256c1.442.482 2.938.892 4.445 1.248.566.135 1.261.237 1.984.329 3.337.445 8.207.515 13.725.03 7.884-.68 17.003-2.48 24.552-5.836 3.623-1.3 10.34-4.202 13.788-8.06.22-2.487-.2-5.091-.852-7.512-1-3.663-2.574-6.857-3.418-8.401-2.359 2.905-7.601 7.237-12.633 9.827-7.556 4.321-13.99 5.572-21.437 6.728-5.822.898-11.394.744-16.42-.485-.402-.1-.823-.157-1.227-.278-7.677-2.647-15.8-9.795-19.348-16.55a29.98 29.98 0 0 1-1.954-6.159c1.102 10.631 5.329 24.925 18.795 35.119" style="stroke-width:2.69543"/><path fill="#c2cbdc" d="M184.574 281.08c0-2.409-13.626-4.35-30.429-4.35-16.8 0-30.429 1.941-30.429 4.35 0 2.394 13.628 4.34 30.43 4.34s30.428-1.946 30.428-4.34" style="stroke-width:2.69543"/><path fill="#c2cbdc" d="M225.358 278.397c0-2.404-13.62-4.347-30.424-4.347-16.808 0-30.423 1.943-30.423 4.347 0 2.415 13.615 4.343 30.423 4.343 16.804 0 30.424-1.928 30.424-4.343" style="stroke-width:2.69543"/><path fill="#0072b0" d="M190.217 264.76c-5.655 8.637-15.167 12.796-21.132 9.22-5.954-3.556-5.954-13.074-.294-21.718 5.949-8.329 15.184-12.197 20.83-8.927 5.955 3.569 6.24 13.38.596 21.426m-2.075-29.456c-10.723-2.385-23.216 5.944-27.685 18.747-5.06 12.803-.3 25.291 10.418 27.671 10.412 2.682 22.916-5.647 27.666-18.162 4.773-13.078 0-25.585-10.4-28.256" style="stroke-width:2.69543"/><path fill="#b8bf26" d="M106.411 71.011c.558-.65 1.149-1.143 1.464-2.07.31-.938-.248-1.571-1.127-1.666-1.558-.237-3.17.41-6.53 1.99-2.505 1.172-17.747 7.749-22.985 12.11-.622.534-1.94.61-2.226-.043-1.375-2.307.528-10.423.66-12.663.049-.666-.595-1.113-1.215-.31-2.267 2.518-12.065 19.092-15.06 28.183-1.865 1.526-5.25 5.992-5.773 6.728-.515.741-.96 1.448-1.437 2.17-.455.714-.927 1.79.747 2.922.512.334 2.779 1.949 2.827 2.485.062.755-.366 2.56-.512 3.879-.356 2.868-1.442 16.868-.703 22.116.1.69.03 1.345.552 1.345.545 0 1.146-2.04 1.78-3.483 2.38-5.234 5.298-13.364 7.608-16.717.407-.539.822-.574 1.119-.28 3.399 3.34 9.226 8.884 13.218 12.418 3.707 3.275 6.798 6.089 9.065 7.879 2.267 1.787 5.841 4.444 7.925 5.18 2.075.723 3.089-2.768 1.51-4.914-1.58-2.148-7.958-11.056-11.122-16.253-3.402-5.615-6.984-13.992-8.96-19.154-.253-.706-.337-1.38-.361-2.091.658-5.16 17.787-21.788 29.536-29.76" style="stroke-width:2.69543"/><path fill="#f58432" d="M226.595 97.75c-.933-2.326-2.022-4.577-3.342-6.701-6.424-10.502-16.658-17.518-29.599-20.264-15.261-3.143-31.898.27-46.647 8.355-13.151 7.909-24.811 19.054-33.135 32.421a73.476 73.476 0 0 0-3.633 7.237c-3.647 8.62-5.448 17.378-5.448 25.725 0 10.642 4.132 22.75 8.723 28.65 5.374 6.914 13.388 12.89 23.083 16.084-13.466-10.194-17.693-24.488-18.792-35.119a34.729 34.729 0 0 1-.663-6.77c0-1.071.094-2.165.183-3.265.863-10.256 5.612-21.526 13.952-31.962 13.377-17.044 32.908-27.664 50.191-28.939.652-.04 1.283-.04 1.922-.061 8.385-.696 31.396-.806 43.31 14.9-.038-.089-.067-.194-.105-.291" style="stroke-width:2.69543"/><path fill="#fcb237" d="M229.764 110.415A48.852 48.852 0 0 0 226.7 98.04c-11.913-15.706-34.924-15.596-43.31-14.9 4.132-.135 8.127.242 11.83 1.25 2.232.604 4.375 1.407 6.37 2.456 7.507 3.717 12.644 9.965 14.798 18.027.752 2.798 1.11 5.77 1.11 8.83 0 1.345-.062 2.717-.21 4.081-.007.092-.017.162-.027.256-1.083 9.998-5.75 20.817-13.54 30.758-.959 1.245-7.692 9.172-11.797 11.728 1.99 2.142 3.415 4.87 4.596 7.743.91 2.192 1.684 4.456 2.415 6.645 8.245-6.523 20.722-20.16 25.46-32.445 3.26-8.458 5.497-16.68 5.707-24.685 0-.445.011-.908.011-1.364 0-2.03-.132-4.038-.347-6.005" style="stroke-width:2.69543"/><path fill="#0072b0" d="M118.525 199.33v.08c0-.04 0-.059.012-.08.078-1.33.226-2.825.447-4.405.612-3.948 1.8-8.466 3.954-12.374.04-.065.078-.14.13-.2-2.73-1.986-5.189-4.178-7.321-6.544-.326.617-.644 1.25-.917 1.873-.42.935-.838 2.013-1.242 3.17-1.537 4.361-2.838 10.08-3.103 16.286-.03.595-.056 1.188-.061 1.806 0 .38.01.76.032 1.137.116 6.3 2.496 12.25 5.657 17.256 1.69 2.696 3.766 4.97 6.108 6.935a36.892 36.892 0 0 1-1.79-4.555c-.067-.13-.11-.261-.175-.374.065.107.108.22.154.331-2.048-6.593-2.304-13.73-1.938-19.472v-.12l.054-.67zM199.33 165.033c-5.113-13.173-18.922-18.132-24.75-19.34-4.978-1.057-9.695-1.259-14.064-.868a46.331 46.331 0 0 0-8.019 1.42h-.011c-13.461 3.618-23.416 11.906-27.513 16.64-.436.48-1.126 1.237-1.96 2.22 2.066 2.542 4.613 4.976 7.362 7.03.873-1.027 1.607-1.854 2.1-2.412 7.035-7.28 14.078-11.72 20.021-14.402 5.486-2.463 10.445-3.31 14.81-3.267.325 0 .64.03.983.046 4.992-.178 20.358.534 31.202 13.38-.067-.148-.11-.307-.161-.447" style="stroke-width:2.69543"/><path fill="#009edd" d="M199.493 165.48c-10.844-12.846-26.213-13.558-31.202-13.38 10.15.466 16.752 5.895 18.24 7.332 4.423 4.331 6.623 10.253 6.709 16.91.062 4.826-2.418 14.83-10.3 26.114-11.021 14.23-28.242 22.464-42.452 21.42.428-10.611 1.439-17.587 1.48-17.743.557-3.79-2.038-7.34-5.828-7.906-3.785-.582-6.701 2.105-7.911 5.803-.175.526-1.998 5.24-3.96 12.655-3.817-4.062-5.876-9.56-5.827-15.725.017-.232.021-.499.03-.76-.367 5.741-.111 12.879 1.937 19.472.038.062.081.134.116.2-.032-.06-.078-.128-.094-.157a36.89 36.89 0 0 0 1.79 4.555c.056.054.132.116.194.16-3.143 14.918-5.38 36.075.253 56.738 1.022 3.69 11.065 4.253 14.758 3.261 3.695-1.027 9.345-3.213 8.334-6.913-4.372-16.027-5.483-32.666-5.429-45.869 21.812 2.677 47.375-12.124 56.583-34.264 3-6.614 3.757-10.054 4.29-19.302.284-4.852-.395-9.03-1.71-12.6" style="stroke-width:2.69543"/><path fill="#006baa" d="m52.051 264.982-1.752-1.604 5.273-5.762-.035-.033-8.04 3.232-1.753-1.604 8.378-3.245 2.986-9.593 1.962 1.795-3.021 8.855.038.032 5.784-6.324 1.752 1.604zM33.128 222.3c1.267-.75 1.604-1.72 1.105-2.558-.504-.857-1.517-1.032-2.784-.286l-7.75 4.577c-1.45.857-1.838 1.747-1.282 2.685.547.922 1.509 1.013 2.962.156zm-6.38 6.523c-2.067 1.218-4.283 1.617-5.922-1.162-1.558-2.639-.684-4.285 1.604-5.636l7.464-4.407c2.064-1.218 4.283-1.617 5.938 1.183 1.541 2.618.67 4.265-1.623 5.615zM11.962 185.612l-.143-.599c-.436-1.824-.843-1.994-3.34-1.396-2.468.59-2.665.787-2.323 2.216l.267 1.108zm-6.924 4.105-.86-3.58c-.809-3.369.011-3.932 3.658-4.808 2.24-.537 3.28-.47 4.312 1.286l.046-.012c-.216-1.61.466-2.334 2.035-2.711l3.626-.868c.6-.146 1.43-.343 2.091-.65l.52 2.17c-.36.331-.765.477-1.434.639l-3.762.903c-1.572.374-1.92.752-1.556 2.275l.189.787 7.25-1.739.553 2.307zM0 145.367l.337-6.447 1.992.102-.213 4.078 5.356.28.202-3.84 1.992.105-.2 3.838 5.785.302.213-4.076 1.992.103-.337 6.45zM18.615 104.01l1.027-2.833-8.266-1.436-.02.046zM8.572 100.09l.936-2.59 17.307 2.568-.811 2.232-4.372-.755-1.265 3.483 3.839 2.226-.809 2.232zM58.548 40.727l.949-.79c1.24-1.032 1.202-1.34-.453-3.328-1.658-1.99-1.949-2.084-3.191-1.052l-.952.79zm-6.744-4.396 3.01-2.504c2.483-2.065 3.521-1.784 6.057 1.264 2.534 3.049 2.623 4.119.14 6.183l-1.188.987 4.768 5.73-1.827 1.52zM96.044 23.726c.574 1.355 1.49 1.819 2.388 1.439.917-.388 1.227-1.37.653-2.725L95.58 14.15c-.655-1.552-1.488-2.054-2.494-1.628-.98.415-1.202 1.359-.544 2.914zm-5.614-7.192c-.936-2.207-1.038-4.46 1.94-5.717 2.82-1.191 4.335-.105 5.372 2.345l3.372 7.981c.933 2.21 1.033 4.461-1.965 5.728-2.797 1.183-4.312.094-5.347-2.353zM131.744.267 134.103 0l1.7 15.049 3.968-.448.221 1.981-6.32.717zM170.939.129 173.28.5l.911 7.45.049.008 3.48-6.758 2.061.327-4.843 9.474-1.105 6.94-2.348-.371 1.105-6.941zM213.534 12.157l7.275 3.501-.863 1.798-2.569-1.237-6.571 13.65-2.143-1.03 6.577-13.65-2.569-1.234zM250.496 35.711l4.817 4.308-1.327 1.485-3.048-2.722-3.574 4 2.862 2.563-1.326 1.488-2.868-2.566-3.865 4.315 3.048 2.725-1.331 1.485-4.811-4.304zM274.528 69.545c2.033-1.27 4.237-1.725 5.949 1.01 1.243 1.996.822 3.55-.817 4.57l-1.447.905-1.178-1.892 1.005-.63c.925-.577 1.31-1.265.78-2.111-.653-1.046-1.529-.782-3.281.313l-7.13 4.455c-1.708 1.07-1.668 1.803-1.26 2.448.463.744 1.282.9 2.495.145l1.01-.63 1.179 1.894-1.612 1.006c-1.531.957-3.084 1.062-4.547-1.273-1.585-2.539-.752-4.207 1.498-5.617zM296.64 106.518l.627 2.29-7.097 1.944.836 3.046 7.097-1.943.625 2.288-16.528 4.528-.634-2.288 7.507-2.057-.83-3.045-7.507 2.056-.628-2.29zM303.167 150.585l-.089 3.278-14.31 2.418-.007.048 14.243.38-.06 2.232-17.134-.458.089-3.418 14.698-2.41v-.048l-14.626-.39.06-2.09zM296.518 194.825l-.711 2.264-16.351-5.146.712-2.261zM276.982 227.632c2.01 1.304 3.353 3.113 1.6 5.822-1.28 1.97-2.875 2.24-4.484 1.194l-1.434-.933 1.218-1.87.994.647c.917.595 1.701.65 2.243-.186.669-1.036.062-1.715-1.668-2.839l-7.052-4.574c-1.69-1.1-2.337-.757-2.752-.118-.48.735-.27 1.55.922 2.326l1 .647-1.215 1.87-1.596-1.032c-1.518-.984-2.27-2.35-.768-4.66 1.63-2.51 3.496-2.461 5.722-1.014zM245.115 253.92l-1.805 1.545-.912-1.062c-.74-.863-1.525-1.127-2.248-.507-.956.82-.63 1.668.09 2.515.948 1.1 1.307 1.412 4.776 1.66 2.143.162 3.994.388 5.512 2.151 1.822 2.127 1.62 3.898-.342 5.582-.968.836-1.955 1.113-2.723 1.09-.558-.025-1.159-.29-1.949-1.208l-1.05-1.227 1.695-1.453.878 1.027c.636.739 1.316.906 2.011.305.741-.636.73-1.342-.138-2.35-.757-.885-1.398-1.27-4.541-1.577-3.345-.321-4.208-.674-5.556-2.24-1.746-2.035-1.962-3.887.184-5.728 1.66-1.423 3.39-1.695 4.787-.073z" style="stroke-width:2.69543"/></svg>